<?xml version="1.0" encoding="UTF-8" standalone="no"?>
<svg
   id="Layer_1"
   version="1.1"
   viewBox="0 0 659.9 725.3"
   sodipodi:docname="Aegis.svg"
   inkscape:version="1.4.2 (f4327f4, 2025-05-13)"
   xmlns:inkscape="http://www.inkscape.org/namespaces/inkscape"
   xmlns:sodipodi="http://sodipodi.sourceforge.net/DTD/sodipodi-0.dtd"
   xmlns="http://www.w3.org/2000/svg"
   xmlns:svg="http://www.w3.org/2000/svg">
  <defs
     id="defs3">
    <filter
       inkscape:collect="always"
       style="color-interpolation-filters:sRGB"
       id="filter7"
       x="-1.1481531"
       y="-1.086636"
       width="3.2963062"
       height="3.1732721">
      <feGaussianBlur
         inkscape:collect="always"
         stdDeviation="229.01029"
         id="feGaussianBlur7" />
    </filter>
  </defs>
  <sodipodi:namedview
     id="namedview3"
     pagecolor="#505050"
     bordercolor="#eeeeee"
     borderopacity="1"
     inkscape:showpageshadow="0"
     inkscape:pageopacity="0"
     inkscape:pagecheckerboard="0"
     inkscape:deskcolor="#505050"
     inkscape:zoom="0.68247623"
     inkscape:cx="330.41444"
     inkscape:cy="361.18474"
     inkscape:window-width="1366"
     inkscape:window-height="697"
     inkscape:window-x="-8"
     inkscape:window-y="-8"
     inkscape:window-maximized="1"
     inkscape:current-layer="Layer_1" />
  <!-- Generator: Adobe Illustrator 29.3.1, SVG Export Plug-In . SVG Version: 2.1.0 Build 151)  -->
  <path
     d="M336.8,90.6c4.7,0,9.2,1,13.4,2.9l188.3,79.9c22,9.3,38.5,31,38.3,56.3-.5,100.1-41.3,281.6-213.6,364.1-16.7,7.9-36.1,7.9-52.8,0C138,511.3,97.2,329.8,95.9,229.7c.8-25.3,17.2-47,39.2-56.3l188.4-79.9c4.1-1.9,8.7-2.9,13.3-2.9h0ZM336.8,535.4c-1-8.8-19.5-201.1,102-276.9,16.9-10.5,41-21.7,74-26.5-114-2.8-228-5.7-342-8.5,26.2,8.3,57.4,22.7,86.2,48.2,103.7,92.1,82.5,246,79.8,263.7Z"
     id="path1" />
  <path
     d="M328.8,246.7c-2.3,0,.8,23.6-10.3,36.8-6.3,7.5-14.7,8.6-14.3,11.7.3,3.1,8.4,1,14.7,6.7,10.9,9.9,8.2,36,10,36,1.6,0-1.2-22.3,8.4-31.7,6.3-6.2,18.6-7.4,18.6-7.4,0,0-9.8-6.9-13.9-11-13-13.2-10.6-41.2-13.1-41.1Z"
     id="path2" />
  <path
     d="M360.9,234.5c-1.4,0,.5,13.5-6.2,21-3.8,4.3-8.8,4.9-8.6,6.7.2,1.8,5,.6,8.8,3.8,6.6,5.6,4.9,20.5,6,20.5,1,0-.7-12.7,5.1-18.1,3.8-3.5,11.2-4.2,11.2-4.2,0,0-5.9-3.9-8.4-6.3-7.8-7.5-6.3-23.5-7.9-23.4Z"
     id="path3" />
  <path
     style="fill:#000000;stroke-width:1.46525"
     d="m 320.15767,596.60028 c -3.22355,-1.05841 -12.75485,-5.46797 -21.18065,-9.79904 C 185.35286,528.39565 111.18412,407.2718 98.066505,258.69729 c -2.524422,-28.59245 -1.392398,-40.44366 5.122265,-53.62518 5.36878,-10.86298 16.82505,-23.1595 25.99482,-27.90137 2.35556,-1.21811 47.93678,-20.79496 101.2916,-43.5041 93.85716,-39.947956 97.31816,-41.288867 106.53289,-41.274527 9.19643,0.01431 12.9154,1.460747 108.08471,42.037797 54.20831,23.11264 101.47596,44.02881 105.03921,46.4804 8.43188,5.80129 15.85387,14.97403 20.86973,25.79266 3.45397,7.44981 4.10495,10.98804 4.56403,24.80693 0.63449,19.09804 -2.79072,53.98538 -7.84533,79.90849 -24.77408,127.05691 -94.82554,225.86292 -196.50803,277.17014 -17.79282,8.97795 -18.20471,9.10194 -31.61071,9.5163 -8.39181,0.25937 -15.823,-0.31564 -19.44402,-1.50455 z M 341.1588,431.57581 c 2.20749,-16.58018 10.23388,-48.59865 16.41639,-65.48753 25.39443,-69.37031 72.03998,-113.61824 136.0824,-129.08764 8.53471,-2.06156 16.5067,-4.10438 17.71553,-4.53962 1.20884,-0.43523 -14.61589,-1.29299 -35.16606,-1.90612 -71.12609,-2.12213 -277.72635,-7.11464 -292.31787,-7.06389 l -14.65253,0.051 15.24206,5.80328 c 73.02823,27.80485 123.91954,86.43807 144.31829,166.27293 4.15972,16.27998 8.21107,38.42484 8.21107,44.88213 0,8.93196 2.48452,3.58994 4.15072,-8.9245 z"
     id="path5" />
  <path
     style="fill:#071d2b;stroke-width:1.46525;fill-opacity:1;filter:url(#filter7)"
     d="M 319.9306,596.53796 C 303.71815,591.24748 265.59327,568.56761 242.49929,550.47536 226.23702,537.7352 195.20711,505.57195 181.45013,487.19646 134.20215,424.08627 105.5786,345.67718 98.035602,258.69729 94.84275,221.87986 98.452739,206.04954 113.7777,189.66591 c 9.33984,-9.98505 12.89373,-11.90705 55.49504,-30.01265 20.12738,-8.55415 63.95883,-27.19238 97.40322,-41.41827 57.84835,-24.606361 61.27154,-25.865539 70.33212,-25.870878 9.12597,-0.0054 12.49511,1.259627 80.58888,30.258418 118.38956,50.41803 125.89529,53.71951 132.57196,58.31318 8.39686,5.7772 15.82364,14.96308 20.83281,25.76726 3.45397,7.44981 4.10495,10.98804 4.56403,24.80693 1.35753,40.86252 -10.47364,105.30913 -28.2908,154.10523 -7.61335,20.85079 -29.73299,64.72318 -41.48644,82.28471 -35.68702,53.3222 -80.08332,93.19257 -134.1486,120.47298 -18.26519,9.21629 -18.59511,9.31651 -32.03823,9.73201 -8.57164,0.26492 -15.82917,-0.31315 -19.67109,-1.56687 z m 22.84834,-174.46179 c 18.35414,-103.35653 72.45224,-167.92587 156.58912,-186.89856 8.63498,-1.94718 10.41537,-2.74201 7.60931,-3.39714 -3.33682,-0.77903 -195.91823,-5.77385 -295.24838,-7.6576 l -41.02707,-0.77806 13.9199,5.65909 c 47.94944,19.49366 82.48715,46.94707 109.19748,86.79911 21.48721,32.05911 38.01907,78.22355 42.64795,119.09237 0.52992,4.67882 1.40909,7.97564 1.95369,7.32626 0.54462,-0.64935 2.50572,-9.71481 4.358,-20.14547 z"
     id="path7" />
  <path
     style="fill:#000000;stroke-width:1.46525"
     d="M 319.9306,596.53796 C 303.71815,591.24748 265.59327,568.56761 242.49929,550.47536 215.46151,529.29347 180.07371,488.78028 160.3484,456.42615 122.91229,395.02217 98.265565,310.0675 97.647114,240.30141 l -0.207823,-23.44404 4.690939,-9.90295 c 5.53611,-11.68719 16.67654,-24.02065 26.42982,-29.26019 3.83669,-2.06111 50.16412,-22.05959 102.94985,-44.44108 71.17156,-30.17721 97.88578,-40.860979 103.3716,-41.341222 8.6945,-0.761139 2.04789,-3.352984 123.00991,47.967712 45.93566,19.48918 86.89633,37.64434 91.02371,40.3448 9.27704,6.06981 16.81333,15.10469 22.08661,26.47853 3.45397,7.44981 4.10495,10.98804 4.56403,24.80693 1.03089,31.03025 -6.49665,82.29218 -17.89589,121.86968 -7.77923,27.00902 -14.46261,44.14398 -27.97919,71.73353 -35.89634,73.27036 -89.55566,128.69825 -158.05022,163.25943 -18.26578,9.2166 -18.59561,9.31679 -32.03877,9.73229 -8.57164,0.26492 -15.82917,-0.31315 -19.67109,-1.56687 z m 21.78306,-168.96011 c 5.57937,-33.13613 13.25872,-58.19301 26.01176,-84.87364 22.72009,-47.53265 56.76158,-80.85925 99.91847,-97.82015 11.4137,-4.48564 35.64551,-11.16727 40.51889,-11.17259 1.86082,-0.002 3.04023,-0.55878 2.62093,-1.23722 -0.4193,-0.67843 -18.09618,-1.67018 -39.28197,-2.20389 -219.78127,-5.53662 -280.4126,-6.90196 -289.81043,-6.52617 l -10.98939,0.43944 8.05889,2.72067 c 13.47918,4.55055 42.5454,19.26445 54.74562,27.71333 22.34439,15.47389 43.70783,36.84049 59.13896,59.14775 21.4053,30.94353 39.71303,81.60542 43.75833,121.08987 0.55925,5.45865 1.3947,9.54695 1.85655,9.08512 0.46183,-0.46185 2.01586,-7.82497 3.45339,-16.36252 z"
     id="path6" />
  <path
     style="fill:#071d2b;fill-opacity:1;stroke-width:1.46525"
     d="m 325.28606,597.58254 c -12.10191,-1.50946 -55.5482,-26.41904 -81.16043,-46.53268 -23.62592,-18.55376 -55.19544,-53.12934 -75.0724,-82.2208 -42.48809,-62.18463 -70.881312,-155.41209 -70.881312,-232.73462 0,-19.85169 0.111264,-20.56871 4.609642,-29.70621 5.64259,-11.46174 17.25438,-23.84059 26.96671,-28.74812 9.91713,-5.01101 132.94917,-57.50444 165.50011,-70.61306 38.35855,-15.447403 40.86384,-16.176359 48.16774,-14.015228 13.67897,4.047428 159.09442,65.517438 192.36603,81.316948 31.92989,15.16238 41.63591,33.01839 39.39583,72.4759 -2.59182,45.65334 -13.19921,97.50967 -28.19239,137.82411 -12.49467,33.59629 -35.53674,75.90499 -56.45283,103.65579 -21.63552,28.70536 -56.64427,61.63624 -85.39044,80.3223 -14.84966,9.6528 -37.08115,21.97626 -45.95527,25.47412 -7.06,2.78279 -24.89475,4.6249 -33.90099,3.50155 z m 18.62599,-178.89692 c 16.08629,-80.05287 52.4805,-136.58658 106.39166,-165.2657 13.01983,-6.92616 36.96277,-15.35073 52.07994,-18.32485 6.03552,-1.18742 8.57226,-2.23691 7.2268,-2.98987 -3.31261,-1.85383 -339.89621,-10.10139 -338.17591,-8.28658 0.40295,0.42508 6.6669,3.20549 13.9199,6.17869 18.97315,7.77759 41.22246,20.0028 55.24341,30.35428 15.89845,11.73762 37.64919,33.95243 49.31134,50.36345 21.52986,30.2969 40.00627,79.04254 45.67041,120.49062 1.01933,7.45911 2.20195,13.21342 2.62802,12.78734 0.42608,-0.42608 2.99307,-11.8144 5.70443,-25.30738 z"
     id="path8" />
  <path
     style="fill:#35556e;fill-opacity:1;stroke-width:1.46525"
     d="m 359.86669,274.00222 c -1.4073,-5.63881 -6.40305,-10.9894 -10.26061,-10.9894 -2.51596,0 -2.13166,-0.72312 2.34556,-4.41363 5.0355,-4.15068 7.51821,-9.02217 8.9519,-17.56515 0.60299,-3.59306 0.61856,-3.58662 0.81429,0.33666 0.33323,6.67959 4.68106,15.63584 9.37305,19.30787 l 4.43822,3.47343 -4.50674,0.98985 c -5.21991,1.14649 -7.40377,3.37479 -8.95084,9.133 l -1.10777,4.12313 z"
     id="path9" />
  <path
     style="fill:#35556e;fill-opacity:1;stroke-width:1.46525"
     d="m 328.40868,327.92237 c -0.67622,-16.50765 -7.57243,-28.79619 -17.17064,-30.59682 -7.29436,-1.36843 -7.2766,-2.78864 0.0889,-7.10508 10.14605,-5.94598 16.56517,-19.94934 17.0388,-37.17022 0.0978,-3.55679 0.8511,-1.23755 2.18929,6.74048 2.9129,17.36619 6.84319,25.5608 15.60561,32.53754 6.08925,4.84833 6.84787,5.95102 4.56919,6.64154 -13.85156,4.19748 -19.15788,10.62878 -21.08489,25.55508 -0.65949,5.10827 -1.11487,6.3598 -1.23622,3.39748 z"
     id="path10" />
  <path
     style="fill:#35556e;fill-opacity:1;stroke-width:1.46525"
     d="m 306.54023,589.18117 c -19.63383,-9.71362 -44.6908,-25.3785 -61.04173,-38.16149 -26.79706,-20.94969 -66.75411,-66.6286 -85.30793,-97.52403 -26.50264,-44.13166 -47.16437,-101.84821 -56.12581,-156.78202 -3.56703,-21.86595 -6.354413,-63.45437 -5.00849,-74.72788 1.62168,-13.58325 12.83389,-31.55326 24.87338,-39.86501 7.44745,-5.14152 111.87873,-50.29967 177.74247,-76.85935 32.04928,-12.923933 36.22485,-13.73792 47.97326,-9.351912 20.03744,7.480542 137.21857,57.039372 174.47244,73.788782 40.09845,18.02832 50.26116,31.84974 50.26116,68.35578 0,8.49893 -0.97181,23.69061 -2.15959,33.75928 -9.13919,77.4724 -30.56533,138.02497 -70.24953,198.53273 -32.69331,49.84857 -83.07471,94.08611 -136.16629,119.56124 -11.59614,5.56422 -13.72101,6.08271 -27.63865,6.7442 l -15.07674,0.71658 z m 37.05855,-165.7232 c 13.83363,-66.03055 35.71896,-110.21329 71.02768,-143.39271 22.85993,-21.48137 49.52487,-34.92526 89.05409,-44.89918 16.00681,-4.03879 9.57913,-4.45973 -123.44753,-8.08437 -42.71211,-1.1638 -107.32974,-2.47722 -143.59474,-2.91872 l -65.93636,-0.80271 8.05889,3.95631 c 36.08228,17.7137 44.28454,22.01064 52.69418,27.60505 22.18129,14.75581 47.19319,39.87006 61.71211,61.96466 17.18939,26.15844 33.41465,68.63028 40.15003,105.09824 2.03002,10.9913 3.69095,20.73152 3.69095,21.64493 0,1.03556 0.48939,1.13675 1.30001,0.26878 0.715,-0.7656 3.09582,-9.96372 5.29069,-20.44028 z"
     id="path11" />
  <path
     style="fill:#2092e9;fill-opacity:1;stroke-width:1.46525"
     d="M 304.37903,586.89997 C 264.24059,566.23188 233.49487,542.63357 205.13535,510.72731 168.23355,469.21044 148.03848,436.22639 129.27494,386.82666 110.48571,337.35928 100.37577,285.27858 99.8234,235.10894 c -0.18394,-16.70652 -0.119796,-17.04882 5.21696,-27.8398 6.73932,-13.62696 15.13973,-22.22772 28.09493,-28.76501 20.57598,-10.38277 140.01384,-61.38436 181.16137,-77.35835 21.23119,-8.242217 25.35076,-8.276459 45.46302,-0.37789 19.57891,7.68912 121.08146,50.61787 152.97922,64.69992 37.1537,16.40242 50.00542,26.17443 56.83371,43.21441 2.9422,7.34225 3.26848,10.63832 3.20261,32.35182 -0.10332,34.05312 -6.13912,72.77838 -17.58396,112.81761 -19.15737,67.02107 -60.56156,136.0491 -106.91383,178.24401 -24.13504,21.97036 -52.39097,41.75255 -77.70997,54.40534 -15.02192,7.50697 -19.28972,8.70493 -34.30473,9.6293 l -12.46736,0.76753 z m 35.37755,-144.76003 c 0.41146,-1.4103 3.70357,-14.76242 7.3158,-29.67136 12.99127,-53.61941 27.68387,-85.56578 53.49842,-116.32247 24.23242,-28.87166 54.42074,-46.61537 102.01081,-59.95862 16.98667,-4.76271 6.81383,-6.00133 -67.40162,-8.20664 -107.58473,-3.19687 -264.48682,-5.88425 -264.47472,-4.52984 0.004,0.40294 12.69707,7.10977 28.20771,14.90406 16.02059,8.05055 33.26676,17.94548 39.92932,22.9093 15.80562,11.77569 42.1623,39.2652 52.40144,54.65368 17.80858,26.76465 34.05874,69.03273 41.52246,108.00354 3.80504,19.86754 5.34119,23.87108 6.99038,18.21835 z"
     id="path4" />
  <path
     style="fill:#2092e9;fill-opacity:1;stroke-width:1.46525"
     d="m 326.27676,313.37169 c -2.0433,-7.63969 -9.9895,-16.65806 -14.6776,-16.65806 -5.2183,0 -4.76129,-2.44011 1.23532,-6.59576 6.01137,-4.16589 14.6275,-18.71503 14.67189,-24.77489 0.0123,-1.68453 0.66161,-4.05183 1.44282,-5.26066 1.12653,-1.74319 1.4283,-1.44007 1.45867,1.46525 0.056,5.35429 3.88986,17.14056 7.44856,22.89865 1.70091,2.75214 5.39673,6.76136 8.21293,8.90938 l 5.12036,3.90548 -6.58413,3.34615 c -7.47274,3.79775 -12.55104,9.51836 -13.74379,15.4821 -1.16719,5.83598 -2.51019,5.03996 -4.58503,-2.71764 z"
     id="path12" />
  <path
     style="fill:#2092e9;fill-opacity:1;stroke-width:1.46525"
     d="m 357.80774,268.56873 c -1.3799,-2.40433 -3.82789,-4.71644 -5.43999,-5.13801 -2.70464,-0.70728 -2.53388,-1.20616 2.21033,-6.45743 2.82777,-3.13001 5.14141,-6.67808 5.14141,-7.88459 0,-3.90259 2.29294,-2.32876 4.17003,2.86222 1.00552,2.78073 3.82603,6.73691 6.26778,8.79151 4.10303,3.45248 4.19793,3.73565 1.25188,3.73565 -1.75323,0 -4.96627,1.90398 -7.14011,4.23108 l -3.95242,4.23109 z"
     id="path15" />
  <path
     style="fill:#2092e9;fill-opacity:1;stroke-width:1.46525"
     d="m 286.45686,641.07296 c -2.01472,-0.65362 -13.2239,-3.81984 -24.90929,-7.03605 -20.5834,-5.66527 -33.2496,-10.28519 -37.00889,-13.49881 -4.07786,-3.48594 -28.7358,-14.39639 -27.95854,-12.37087 0.44542,1.16073 1.42454,2.11043 2.17584,2.11043 0.75128,0 6.54953,5.27491 12.88497,11.72202 6.33545,6.44712 11.0164,11.72202 10.40211,11.72202 -1.84604,0 -26.96299,-12.04626 -28.72877,-13.77851 -0.90075,-0.88365 -7.09594,-4.24409 -13.76708,-7.46765 l -12.12935,-5.86101 12.99774,-0.73262 12.99773,-0.73263 -5.12838,-2.76864 c -2.82062,-1.52276 -5.45807,-3.21716 -5.86101,-3.76537 -0.40295,-0.5482 -4.35913,-2.99039 -8.79152,-5.42711 -16.61703,-9.13523 -24.53843,-15.05019 -37.36394,-27.89996 -16.09464,-16.12507 -32.96818,-34.02671 -32.96818,-34.97692 0,-0.38535 -3.626499,-5.09722 -8.058888,-10.4708 -4.432389,-5.3736 -8.058888,-10.63092 -8.058888,-11.68296 0,-1.05203 -0.565645,-1.91278 -1.256988,-1.91278 -1.47349,0 -9.858151,-13.39316 -15.594232,-24.90929 -2.207731,-4.43239 -5.192816,-9.18179 -6.633521,-10.55423 -2.155023,-2.05291 -9.324072,-22.248 -12.117918,-34.13598 -0.378791,-1.61177 -0.765199,4.05547 -0.858683,12.59386 -0.151849,13.86916 0.147526,15.8117 2.807841,18.21926 1.637798,1.48219 4.405288,5.04604 6.149979,7.91968 1.74469,2.87362 3.662839,5.56948 4.262551,5.9908 0.599713,0.4213 3.009917,6.02589 5.356011,12.45464 7.547928,20.68279 7.409108,27.8442 -0.227116,11.71625 -2.10583,-4.44758 -4.346739,-8.08651 -4.979795,-8.08651 -0.633058,0 -2.217254,-2.14293 -3.520435,-4.76207 -1.303182,-2.61914 -5.019713,-10.03698 -8.258956,-16.48409 -3.239244,-6.44711 -7.025878,-15.6782 -8.414743,-20.51353 -1.388866,-4.83534 -3.024237,-9.1212 -3.63416,-9.52414 -1.172741,-0.77477 -14.640763,-49.70338 -14.591762,-53.01108 0.01577,-1.06474 2.366111,0.85181 5.222973,4.259 2.856863,3.4072 7.079096,7.537 9.38274,9.17735 l 4.188444,2.98243 -1.515645,-5.51421 c -0.833606,-3.03281 -1.94694,-5.84388 -2.474077,-6.24683 -1.956668,-1.49568 -6.165701,-21.01554 -7.509043,-34.82402 -0.7631,-7.84407 -1.377316,-21.51494 -1.364925,-30.37971 0.0393,-28.11956 5.073346,-69.50987 8.821364,-72.53 0.50006,-0.40295 2.909028,-7.47439 5.353263,-15.71432 4.104437,-13.83676 4.226449,-14.86524 1.59652,-13.45775 -1.56615,0.83819 -3.210525,2.46988 -3.65417,3.62599 -0.443643,1.15613 -1.512265,2.10204 -2.374715,2.10204 -0.862451,0 -3.45653,2.14293 -5.764621,4.76207 l -4.196529,4.76207 0.946701,-5.12838 c 1.231274,-6.66995 6.488616,-22.49962 7.785979,-23.44331 0.554519,-0.40334 2.964707,-5.67859 5.355973,-11.72275 l 4.347756,-10.9894 0.732626,15.38515 0.732626,15.38515 4.813125,-11.8064 c 2.647217,-6.49353 6.108876,-12.91586 7.692575,-14.27187 1.583698,-1.35601 2.879452,-3.39244 2.879452,-4.5254 0,-2.88458 16.068468,-26.70984 23.152909,-34.32959 3.233421,-3.47774 6.824488,-8.27549 7.98015,-10.66167 5.478142,-11.31113 46.612642,-52.782628 57.335192,-57.804928 8.32918,-3.901277 17.33055,-9.045178 18.28619,-10.449782 1.10411,-1.622837 40.2658,-20.991261 42.44296,-20.991261 0.81367,0 1.69918,-0.526091 1.96782,-1.169089 0.74723,-1.788614 25.44711,-12.003939 29.31495,-12.124023 1.87496,-0.05821 10.66202,-1.637521 19.52679,-3.509578 l 16.11778,-3.403737 -26.37454,-0.252723 c -21.32744,-0.204361 -25.67356,-0.579251 -22.71142,-1.959051 2.01473,-0.938481 4.53443,-2.542264 5.59936,-3.563963 1.06492,-1.021698 3.41038,-1.857634 5.21213,-1.857634 1.80173,0 11.80829,-1.66817 22.23679,-3.707044 10.4285,-2.038875 29.80941,-4.794001 43.0687,-6.122503 20.89217,-2.093271 27.1223,-2.16995 46.70771,-0.574868 20.57678,1.675822 29.75981,3.011294 65.29154,9.495227 6.35431,1.159554 11.9589,2.680933 12.45464,3.380843 0.49574,0.699911 2.54976,2.033897 4.56448,2.964417 2.94068,1.358181 -1.36995,1.711412 -21.85669,1.791022 -14.03588,0.05454 -25.24506,0.367023 -24.90929,0.694398 0.33579,0.327377 8.85257,2.056167 18.92619,3.841757 16.55487,2.934422 43.33923,11.653631 45.47261,14.802865 0.43035,0.635244 4.4556,2.779437 8.94503,4.764875 13.43219,5.940358 32.64139,15.641772 33.46275,16.900032 0.42205,0.646573 6.37197,4.061093 13.22203,7.587821 11.08293,5.70601 15.23842,9.19796 37.73025,31.705597 13.90158,13.91135 25.2756,25.97158 25.2756,26.8005 0,0.82892 2.81071,4.31783 6.24602,7.75314 3.4353,3.43531 8.81504,10.11642 11.95496,14.84691 3.13993,4.73049 6.79206,9.684 8.11585,11.0078 1.3238,1.32379 5.88056,10.6149 10.12614,20.6469 4.24557,10.03201 8.28793,19.55873 8.98301,21.17051 0.8212,1.90426 1.35801,-2.97039 1.53291,-13.9199 0.14803,-9.26772 0.57068,-15.69652 0.93924,-14.28621 0.36854,1.4103 1.2042,2.56419 1.857,2.56419 0.65281,0 1.55326,1.15389 2.00101,2.56419 0.44773,1.41031 2.88556,8.16879 5.41737,15.01884 5.32946,14.41932 10.40041,31.08642 9.67786,31.80896 -0.2739,0.27392 -3.61639,-3.15208 -7.42773,-7.61332 -7.60856,-8.90589 -13.18454,-13.01291 -11.51052,-8.47808 0.5275,1.42896 1.41193,2.92778 1.9654,3.33072 0.55348,0.40295 3.49133,9.63404 6.52855,20.51354 11.21605,40.17646 12.72898,96.38674 3.84517,142.86096 -0.77012,4.02881 -1.19654,7.5288 -0.94759,7.77775 0.24895,0.24895 3.26487,-2.8825 6.70205,-6.95879 6.45306,-7.65294 8.72118,-9.00884 8.72118,-5.21356 0,1.20883 -0.56542,2.19788 -1.25651,2.19788 -0.69109,0 -1.65654,3.82715 -2.14545,8.50479 -1.25246,11.98278 -18.08229,64.0832 -21.36895,66.15223 -0.702,0.44192 -4.85261,7.7268 -9.22359,16.18863 -9.5989,18.58263 -11.41105,21.67794 -14.72514,25.15191 -2.2529,2.36158 -2.5642,2.39723 -2.5642,0.2937 0,-3.93651 3.30028,-13.72359 4.6277,-13.72359 0.67832,0 1.23331,-0.63463 1.23331,-1.41029 0,-4.07699 6.57152,-17.87023 11.77236,-24.7095 5.78348,-7.60547 5.92366,-8.06486 5.5063,-18.04599 l -0.42825,-10.24186 -3.50845,9.25448 c -4.89746,12.91836 -11.73276,26.35119 -14.99012,29.45878 -1.51117,1.4417 -2.74759,3.24333 -2.74759,4.00363 0,0.76031 -2.63746,5.69147 -5.86101,10.95813 -3.22356,5.26666 -5.86101,10.1697 -5.86101,10.89563 0,0.72594 -2.65362,4.08177 -5.89693,7.4574 -3.24329,3.37562 -9.48336,10.84727 -13.86681,16.60364 -4.38345,5.75639 -10.63124,12.64632 -13.88398,15.31095 -3.25276,2.66465 -5.9141,5.50567 -5.9141,6.31341 0,1.81121 -11.73584,14.48371 -13.41317,14.48371 -0.66794,0 -5.5855,4.28587 -10.92793,9.52414 -5.34241,5.23828 -10.29173,9.52414 -10.99846,9.52414 -1.78499,0 -15.94428,10.2908 -15.94428,11.58809 0,0.58103 -2.47261,2.32904 -5.49469,3.88447 l -5.4947,2.82804 10.98939,0.74016 10.9894,0.74015 -8.74567,5.4947 c -4.81012,3.02208 -9.56482,5.4947 -10.56601,5.4947 -1.00118,0 -3.05111,1.32108 -4.55538,2.93573 -1.50429,1.61467 -9.1607,5.23194 -17.01425,8.03841 -7.85355,2.80645 -14.8905,5.48047 -15.63767,5.94224 -3.83184,2.36822 -0.21087,-1.99557 9.81373,-11.82689 l 11.17224,-10.95682 -10.0615,3.78715 c -5.53384,2.08292 -10.39651,4.27023 -10.80593,4.86067 -0.91545,1.32019 -23.22342,8.99788 -38.10835,13.11567 -6.04417,1.67207 -15.7073,4.38405 -21.47363,6.02662 -9.59555,2.73337 -14.37717,2.97583 -56.41222,2.86057 -25.26039,-0.0693 -47.57639,-0.66071 -49.59112,-1.31432 z m 78.56356,-47.33485 c 6.35221,-2.90515 13.85724,-5.71709 16.67786,-6.24873 4.29765,-0.81003 11.70393,-2.86187 32.60186,-9.03199 1.41031,-0.41638 2.5642,-1.26126 2.5642,-1.87748 0,-0.61623 2.85268,-1.83872 6.33931,-2.71667 3.48662,-0.87794 13.21224,-4.86139 21.61247,-8.8521 l 15.27316,-7.25585 -13.65134,-0.11336 c -12.3654,-0.10267 -14.09975,0.22865 -18.41141,3.51732 -6.13653,4.68056 -23.91268,13.95235 -26.74984,13.95235 -1.9742,0 4.89501,-5.00644 32.75284,-23.8711 5.00847,-3.39162 13.79018,-8.80403 19.51494,-12.02758 5.72474,-3.22356 11.04604,-7.0149 11.8251,-8.4252 0.77905,-1.41031 2.26726,-2.56419 3.30712,-2.56419 3.35166,0 21.84199,-15.03613 34.23726,-27.84138 12.86193,-13.28732 25.64554,-29.92823 28.98336,-37.72867 1.12073,-2.61914 2.64487,-4.76207 3.38696,-4.76207 1.50008,0 18.50564,-36.50664 20.17213,-43.30446 0.58198,-2.37394 1.5055,-4.64593 2.05229,-5.04888 0.54679,-0.40294 1.7369,-4.35912 2.64471,-8.79151 0.9078,-4.43239 2.63698,-12.67444 3.84262,-18.31566 2.48772,-11.64005 6.83554,-60.26674 5.66203,-63.32487 -0.42403,-1.10501 0.46472,-10.71636 1.97499,-21.35858 l 2.74594,-19.34948 0.73262,65.93637 c 0.68366,61.52882 0.86724,65.20177 2.74636,54.94697 1.10755,-6.04417 2.46486,-11.31908 3.01625,-11.72202 1.81235,-1.32446 4.46459,-19.72638 6.14997,-42.67028 1.5315,-20.84877 1.4205,-23.91286 -1.46462,-40.43404 -1.71693,-9.8317 -3.12169,-19.55174 -3.12169,-21.60009 0,-2.04835 -0.53472,-3.72428 -1.18825,-3.72428 -2.92447,0 -4.66599,-15.11638 -4.389,-38.09656 0.33153,-27.50558 -1.22189,-33.84303 -11.66404,-47.58569 -9.33499,-12.28553 -17.18376,-16.89364 -58.68811,-34.4565 -21.5011,-9.09834 -44.65447,-19.41672 -51.45192,-22.92972 -6.79744,-3.51301 -13.20055,-6.38728 -14.22912,-6.38728 -1.02858,0 -3.07809,-1.29657 -4.55445,-2.88126 -1.50618,-1.61669 -7.09589,-3.90437 -12.73597,-5.21239 -5.52842,-1.28213 -25.87249,-8.95921 -45.20906,-17.06017 -44.30505,-18.561402 -39.38538,-18.591073 -84.54482,0.50989 -29.83199,12.61795 -37.34284,15.31188 -50.14434,17.98535 -2.1939,0.45817 -5.16103,2.07689 -6.59364,3.59716 -3.81657,4.05007 -9.70021,6.81076 -59.50431,27.92032 -24.84765,10.53172 -47.17658,20.18233 -49.61984,21.44579 -6.15443,3.18258 -16.76499,13.20576 -21.93621,20.72186 -8.148615,11.84361 -10.22473,20.76779 -10.096082,43.398 0.06351,11.17133 0.429901,20.82028 0.81421,21.4421 0.384309,0.62183 -0.240649,4.25198 -1.388798,8.06698 -1.148149,3.81501 -3.561899,16.25474 -5.36389,27.64385 -1.801989,11.3891 -3.821265,20.92725 -4.487278,21.19587 -1.602799,0.64649 -1.570408,13.43149 0.03403,13.43149 0.684729,0 1.687521,7.41784 2.228425,16.48409 0.540905,9.06625 2.782967,26.37455 4.982361,38.46288 l 3.998897,21.97879 0.506867,-67.40162 0.506866,-67.40161 2.805992,17.58303 c 1.5433,9.67066 2.77863,22.19857 2.74519,27.83979 -0.0831,14.0144 3.03145,51.11358 4.36687,52.01647 0.59598,0.40294 1.46584,3.37008 1.93304,6.59363 2.67585,18.46301 8.72246,40.75205 14.30985,52.74909 3.37795,7.253 6.56852,13.51696 7.09015,13.9199 0.52164,0.40295 3.36621,5.49479 6.32127,11.3152 6.26732,12.34441 13.91819,23.85086 15.85889,23.85086 0.74648,0 2.42202,2.05908 3.72343,4.57572 3.48973,6.7484 32.83516,35.45762 41.11269,40.22137 3.93117,2.2624 8.5734,5.48884 10.31609,7.16987 1.74266,1.68101 9.32535,6.46552 16.8504,10.63223 7.52504,4.16671 15.00062,8.62611 16.6124,9.90974 2.7555,2.19451 23.57224,16.91955 29.51763,20.87975 2.37337,1.5809 2.1662,1.6898 -1.63428,0.85909 -4.69344,-1.0259 -10.3622,-4.00301 -22.27065,-11.69609 -7.24899,-4.68296 -8.16222,-4.88927 -21.24617,-4.79959 l -13.67158,0.0937 5.12839,2.41873 c 2.82061,1.3303 9.08456,4.31107 13.91989,6.62392 4.83534,2.31286 12.08834,5.21028 16.11778,6.43871 4.02945,1.22842 7.65595,2.72778 8.05889,3.33192 0.99129,1.48625 28.41358,9.78185 36.63131,11.08144 3.6265,0.57352 9.89046,2.71866 13.9199,4.76701 12.83431,6.52424 18.12954,7.66466 33.14073,7.13744 12.4962,-0.43889 15.40065,-1.09324 25.64192,-5.77706 z M 552.40019,464.24795 c 2.41767,-4.70494 4.80171,-8.88411 5.29787,-9.28705 1.60825,-1.30611 7.1587,-13.01464 7.09201,-14.96046 -0.0356,-1.03947 -1.44498,0.74751 -3.13194,3.97107 -1.68696,3.22355 -3.60825,6.21251 -4.26953,6.64212 -0.66127,0.4296 -3.53927,5.9092 -6.39555,12.17688 -5.9877,13.13914 -5.07915,14.08016 1.40714,1.45744 z M 121.76673,463.3861 c -8.09362,-17.9147 -13.30857,-28.32834 -15.0947,-30.14234 -1.04856,-1.06491 -1.90648,-2.65838 -1.90648,-3.54103 0,-0.88264 -0.35436,-1.25043 -0.78748,-0.8173 -1.05986,1.05986 2.39997,8.49244 3.95318,8.49244 0.67654,0 1.23717,0.8242 1.24585,1.83157 0.0148,1.71219 8.83258,21.22837 12.90962,28.57242 3.38526,6.09794 3.18633,3.36526 -0.31999,-4.39576 z m 446.60252,-31.50293 c 1.33201,-2.61914 2.09217,-4.76207 1.68923,-4.76207 -0.84396,0 -5.20364,8.1231 -5.20364,9.69559 0,1.5299 0.79456,0.41451 3.51441,-4.93352 z m -87.0338,-300.7913 c -2.01473,-1.58469 -4.36402,-3.45165 -5.22068,-4.14881 -2.08292,-1.69512 -7.55197,-4.59448 -8.66656,-4.59448 -0.49095,0 1.93831,2.62924 5.39835,5.84275 3.46007,3.21351 7.60973,5.82902 9.22151,5.81226 2.68792,-0.028 2.62727,-0.269 -0.73262,-2.91172 z m -274.58358,-3.48075 c 0.43557,-1.13505 2.88749,-2.87724 5.44872,-3.87153 2.56122,-0.99429 9.93169,-4.24556 16.3788,-7.22505 6.44711,-2.97948 16.83209,-6.95797 23.07773,-8.84109 6.24564,-1.88311 11.3557,-3.89563 11.3557,-4.47227 0,-0.57664 1.72622,-1.48169 3.83603,-2.01122 2.10982,-0.52953 3.49265,-1.306169 3.07296,-1.725861 -1.18265,-1.182641 -18.63101,2.588591 -18.63101,4.026841 0,0.70104 -1.69877,1.27461 -3.77506,1.27461 -2.07628,0 -10.15348,3.3994 -17.94934,7.55421 -7.79585,4.15481 -15.71122,8.37362 -17.58968,9.37513 -4.27302,2.27817 -9.69266,7.97996 -7.58509,7.97996 0.86258,0 1.92468,-0.92868 2.36024,-2.06373 z m 244.61197,-12.4819 c -0.46173,-0.7471 -3.30295,-2.16281 -6.31381,-3.14604 -3.01085,-0.98323 -7.7723,-3.00942 -10.58096,-4.50266 -2.80869,-1.49323 -6.92971,-2.71497 -9.15783,-2.71497 -2.22814,0 -4.05115,-0.65936 -4.05115,-1.46525 0,-0.80589 -0.98904,-1.46525 -2.19788,-1.46525 -1.20883,0 -2.19787,0.65936 -2.19787,1.46525 0,0.80589 0.8242,1.46932 1.83156,1.47428 1.00736,0.005 3.80966,1.06523 6.22732,2.35614 2.41767,1.29091 9.34099,3.85741 15.38516,5.70332 6.04416,1.84591 11.19315,3.4231 11.44218,3.50487 0.24904,0.0818 0.075,-0.4626 -0.38672,-1.20969 z"
     id="path16" />
</svg>
