<?xml version="1.0" encoding="UTF-8" standalone="no"?>
<!-- Creator: CorelDRAW -->

<svg
   xml:space="preserve"
   width="24.5862mm"
   height="27.5359mm"
   version="1.1"
   style="shape-rendering:geometricPrecision; text-rendering:geometricPrecision; image-rendering:optimizeQuality; fill-rule:evenodd; clip-rule:evenodd"
   viewBox="0 0 3091.03 3461.87"
   id="svg2"
   sodipodi:docname="lynn.svg"
   inkscape:version="1.4.2 (f4327f4, 2025-05-13)"
   xmlns:inkscape="http://www.inkscape.org/namespaces/inkscape"
   xmlns:sodipodi="http://sodipodi.sourceforge.net/DTD/sodipodi-0.dtd"
   xmlns="http://www.w3.org/2000/svg"
   xmlns:svg="http://www.w3.org/2000/svg"><sodipodi:namedview
   id="namedview2"
   pagecolor="#505050"
   bordercolor="#eeeeee"
   borderopacity="1"
   inkscape:showpageshadow="0"
   inkscape:pageopacity="0"
   inkscape:pagecheckerboard="0"
   inkscape:deskcolor="#505050"
   inkscape:document-units="mm"
   inkscape:zoom="4.7562909"
   inkscape:cx="46.359654"
   inkscape:cy="52.036347"
   inkscape:window-width="1366"
   inkscape:window-height="697"
   inkscape:window-x="-8"
   inkscape:window-y="-8"
   inkscape:window-maximized="1"
   inkscape:current-layer="Layer_x0020_1" />
 <defs
   id="defs1">
  <style
   type="text/css"
   id="style1">
   <![CDATA[
    .str0 {stroke:#2C373D;stroke-width:21.28;stroke-miterlimit:22.9256}
    .fil0 {fill:#1B252B}
    .fil1 {fill:#2C373D}
   ]]>
  </style>
 </defs>
 <g
   id="Layer_x0020_1"
   inkscape:label="Layer 1">
  <metadata
   id="CorelCorpID_0Corel-Layer" />
  <g
   id="_2756764931488">
   <g
   id="g1">
    <path
   class="fil0"
   d="M372.23 546.48l1110.88 -249.86 47.51 -24.03 -1.35 -259.31 -77.78 5.24 -1278.62 294.38 -170.91 36.36 -1.17 594.63 269.45 -0.15 4.56 -373.36 97.42 -23.9zm1447.25 399.85l-272.89 -2.07 -0.57 -549.85 -1174.53 255.18 -1.17 294.91 1449.16 1.84zm-1083.4 1351.31c60.08,126.89 212.6,258.5 294.25,346.53l4.59 4.9 4.84 5.08 5.07 5.23 5.32 5.38 5.52 5.54 5.76 5.7 5.97 5.81 6.16 5.93 6.35 6.08 6.56 6.17 6.73 6.3 6.91 6.39 7.08 6.49 7.23 6.58 7.41 6.66 7.54 6.74 7.68 6.81 7.82 6.85 7.96 6.91 8.06 6.98 8.18 7 8.29 7.04 8.39 7.08 8.47 7.1 8.56 7.1 8.65 7.12 8.69 7.1 0.03 0 8.76 7.12c8.8,7.12 17.71,14.18 26.63,21.22l0.03 0c98.35,77.39 203.22,148.79 272.92,174.06l-1.45 1.65 1.58 -1.6 -0.05 -0.15 1.62 -2.05 1.53 -2.2 1.47 -2.29 1.4 -2.44 1.31 -2.54 1.24 -2.64 1.17 -2.74 1.09 -2.85 0.01 0c0.7,-1.92 1.38,-3.94 2,-6l0.91 -3.14 0.84 -3.24 0.78 -3.32 0.01 0 0.72 -3.39 0.01 0 0.65 -3.5 0.01 0 0.6 -3.55 1.08 -7.34 0.47 -3.76 0.39 -3.83 0.03 0 0.35 -3.9 0.6 -7.95 0.23 -4.05 0.03 0 0.19 -4.1 0.15 -4.14 0.03 0 0.11 -4.17 0 -0.03 0.15 -8.45 0.04 -4.29 0 -4.3 -0.01 -4.32 -0.05 -4.35 -0.08 -4.36 -0.1 -4.38 0 -0.01 -0.1 -4.39 -0.14 -4.38 0 -0.03 -0.14 -4.39 -0.18 -4.4 -0.18 -4.38 0 -0.03 -0.16 -4.36 -0.03 -0.01 -0.19 -4.38 -0.19 -4.36 -0.2 -4.34 0 -0.01 -0.21 -4.31 -0.01 0 -0.21 -4.3 0 -0.01 -0.2 -4.26 -0.21 -4.25 -0.01 0 -0.21 -4.21 -0.19 -4.17 -0.2 -4.12 0 -0.03 -0.19 -4.07 -0.18 -4.04 0 -0.01 -0.18 -3.99 -0.14 -3.94 -0.14 -3.88 -0.11 -3.82 -0.1 -3.76 -0.09 -3.7 -0.05 -3.62 -0.04 -3.53 0 -3.47 0.01 -3.38 0 -0.03 0.05 -3.29 1.06 -138.43c-119.17,29.44 -599.96,-459.75 -659.27,-597.29 -1.8,-61.16 20.17,-101.18 48.67,-134.22 119.07,-138.02 284.41,64.86 381.29,137.67 19.64,21 70.71,61.3 104.9,80.52 57.09,32.08 93.83,17.6 136.58,-9.67l-4.8 -419.67 0.04 -4.46 0 -0.08 0.04 -4.26 0 -0.18 0.06 -4.06 0 -0.25 0.08 -3.88 0 -0.3 0.09 -3.7 0.01 -0.38 0.09 -3.52 0.01 -0.45 0.1 -3.34 0 -0.5 0.13 -3.19 0.01 -0.57 0.11 -3.03 0.01 -0.62 0.13 -2.88 0.01 -0.65 0.13 -2.73 0.03 -0.72 0.11 -2.59 0.03 -0.74 0.13 -2.45 0.04 -0.77 0.1 -2.34 0.04 -0.8 0.1 -2.2 0.05 -0.84 0.09 -2.07 0.05 -0.88 0.09 -1.95 0.05 -0.91 0.09 -1.84 0.04 -0.93 0.08 -1.72 0.04 -0.96 0.08 -1.62 0.05 -0.97 0.05 -1.52 0.04 -0.98 0.06 -1.43 0.04 -0.99 0.04 -1.33 0.03 -1.01 0.04 -1.26 0.03 -1.01 0.01 -1.17 0.01 -1.02 0.03 -1.08 0 -1.02 0 -2.04 0 -0.96 -0.03 -1.02 -0.01 -0.88 -0.04 -1.02 -0.01 -0.79 -0.05 -1.03 -0.04 -0.74 -0.08 -1.02 -0.05 -0.68 -0.06 -1.02 -0.08 -0.62 -0.1 -1.02 -0.05 -0.58 -0.14 -0.99 -0.08 -0.52 -0.15 -0.99 -0.09 -0.48 -0.16 -0.98 -0.09 -0.44 -0.21 -0.97 -0.1 -0.38 -0.24 -0.97 -0.09 -0.34 -0.29 -0.96 -0.09 -0.3 -0.33 -0.94 -0.11 -0.26 -0.35 -0.92 -0.09 -0.24 -0.41 -0.92 -0.11 -0.21 -0.44 -0.89 -0.6 -1.07 -0.09 -0.16 -0.55 -0.85 -0.09 -0.13 -0.62 -0.85 -0.09 -0.11 -0.65 -0.84 -0.09 -0.09 -0.73 -0.83 -0.06 -0.05 -0.8 -0.8 -0.05 -0.05 -0.88 -0.8 -0.03 -0.03 -0.94 -0.79 -0.01 0 -1.02 -0.78 -0.01 0 -0.36 -0.26 -1.85 -1.21 -0.05 -0.04 -1.16 -0.67 -0.08 -0.05 -1.21 -0.64 -0.1 -0.05 -1.22 -0.6 -0.14 -0.08 -1.27 -0.57 -0.16 -0.09 -1.29 -0.55 -0.21 -0.09 -1.35 -0.53 -0.24 -0.11 -1.37 -0.49 -0.29 -0.13 -1.4 -0.48 -0.34 -0.13 -1.42 -0.47 -2.28 -0.73c-165.46,0 -353.61,-8.45 -516.2,-0.06l-13.55 0.57 -952.36 -0.47c20.4,186.75 175.7,633.6 290.93,791.96l16.75 20.58c1.28,1.55 3.97,4.58 6.05,6.78 29.46,111.8 318.01,439.11 439.64,544.72 231.04,200.6 301.02,265.29 578.21,433.15 46.5,28.14 140.42,103.24 190.09,82.67 -12.51,-8.74 -17.74,0.89 -22.78,-62.07l2.77 -244.49c-68.96,-10.89 -364.8,-235.11 -422.97,-282.3 -73.55,-59.66 -121.93,-107.35 -187.29,-168.82 -30.94,-29.09 -156.69,-173.71 -179.08,-182.91 -16.85,-46.01 -85.52,-124.77 -119.03,-173.96 -120.57,-177.05 -227.92,-402.59 -278.65,-616.79l101.16 -1.37c41.88,91.97 124.02,439.01 275.14,580.68zm795.87 -1083.95c17,-47.8 10.42,-127.12 7.03,-187.25l-295.46 0.04 -0.68 186.58 289.11 0.63zm-3.39 1804.87l0.05 0.15 -0.05 -0.15zm-793.96 -1803.88l420.53 0.55 1.45 -189.17 -421.75 -1.09 -0.23 189.71zm-706.41 269.8l429.63 3.91 2.28 -190.83 -453.37 -1.71 21.46 188.63zm519.96 3.11l403.67 -0.69 2.75 -189.58 -403.71 -1.7 -2.72 191.96zm988.44 -10.64l0.68 -171.11 175.85 1.43c-25.58,-31.72 -292.2,-16.57 -333.72,-16.57 -99.12,0 -250.24,-9.13 -342.97,4.2l-2.04 195.21c100.11,11.33 240.93,3.68 345.01,2.94l298.93 -3.23c39.54,-6.34 15.28,2.09 34.16,-15.15l-175.9 2.28zm-1536.21 -262.81l647.62 0.97 0.63 -188.62 -648.63 1.24 0.38 186.41z"
   id="path1" />
   </g>
   <path
   class="fil1 str0"
   d="M1570.66 296.98c161.63,39.98 1177.84,251.17 1225.01,282.9 22.86,60.06 8.64,169.84 9.05,245.43 45.74,-18.71 142.72,-141.14 179.02,-181.47 112.99,-125.47 98.47,-59.58 92.82,-287.06l-1547.29 -343.51 1.18 265.88 40.21 17.83zm947.84 1672.18c83.06,-61.92 167.25,-527.97 171.4,-672.99 -44.07,31.03 -183.01,208.54 -201.47,243.41 -91.41,91.37 -588.81,708.36 -619.6,772.83 -76.9,34.15 -197.94,291.05 -322.55,328.13 -0.67,86.81 19.08,290.54 -8.16,362.04l-1.17 2.73 -1.24 2.64 -1.31 2.53 -1.4 2.44 -1.46 2.29 -1.53 2.19 -1.71 2.15 -0.2 0.24 -1.24 1.4c47.85,19.73 217.64,-119.98 263.41,-152.22 50.1,-35.3 78.39,-58.86 122.33,-95.57l91.44 -80.8c16.55,-18.73 12.2,-10.5 21.98,-28.73 43.26,-20.13 62.96,-47.61 94.64,-83.88 26.79,-30.71 56.2,-56.98 82.03,-89.93 53.22,-67.85 100.14,-125.21 149.16,-200.65 44.43,-56.47 160.89,-250.98 166.66,-320.23zm274.1 -740.45c-7.1,238.14 -47.05,405.08 -112.07,615.62 -34.96,121.93 -98.05,213.11 -134.5,318.09 -27.13,32.5 -53.56,88.27 -77.27,123.87 -31.34,47.02 -62.43,80.89 -80.84,132.37 -32.11,17.46 -65.26,77.19 -91.74,107.68 -19.44,22.39 -27.91,35.25 -46.89,56.27 -32.17,35.63 -29.65,19.03 -49.2,62.19l-300.39 264.58c-107.45,80.81 -227.24,165.4 -353.12,234.35l-2.75 243.99c5.03,62.82 10.25,53.22 22.73,61.93 122,-55.97 283.88,-166.15 384.67,-235.85 73.57,-50.88 318.57,-237.84 336.97,-289.11 47.95,-25.48 122.43,-105.81 160.52,-153.8 31.76,-40.03 118.37,-130.16 129.63,-172.5l14.92 -12.55c8.8,-8.73 9.18,-8.26 18.48,-19.46 42.31,-50.99 142.28,-202.06 148.16,-249.89 50.24,-37.31 81.03,-133.18 108.03,-193.64 26.01,-58.2 74.2,-158.02 75.23,-220.96 56.27,-50.77 105.34,-393.43 117.86,-492.42 24.86,-196.37 17.69,-410.49 18.17,-612.03 -46.89,28.84 -185.53,231.2 -241.15,298.15 -48.4,58.34 -42.7,39.25 -45.49,133.09zm-1080.03 82.98l-175.48 -1.43 -0.68 170.76 175.53 -2.28 0.63 -167.05zm57.72 -94.05l-0.15 -183.14 -231.35 -3.04c3.39,59.99 9.96,139.16 -7,186.85l238.51 -0.67zm-102.43 794l322.54 -330.3c48.5,-28.09 166.07,-169.61 215.09,-221.62 141.29,-149.94 284.85,-295.84 425.86,-445.65 51.92,-55.13 77.31,-43.4 78.51,-139.8 0.92,-72.48 2.46,-147.65 0.18,-219.94l-1164.01 -232.25 0.36 527.35 272.31 2.06c48.18,21.15 36.91,53.17 36.17,116.9 -0.57,47.77 -1.12,95.66 0.65,143.37l224.53 7.79 -16.1 80.76 -265.03 1.92 -19.5 266.15 -246.72 3.17 4.4 559.66c7.03,-3.72 14.09,-7.97 21.32,-12.6 37.93,-44.17 71.17,-67.56 109.44,-107z"
   id="path2" />
  </g>
 <path
   style="fill:#f8f9fa;stroke-width:0.210248;fill-opacity:1"
   d="m 45.939159,55.721083 v -8.730685 h 3.650303 3.650304 l 0.128514,-1.314049 c 0.07068,-0.722727 0.191796,-2.41824 0.269141,-3.767806 0.07734,-1.349564 0.205844,-2.559278 0.285553,-2.688248 0.09327,-0.150914 1.53931,-0.28087 4.056997,-0.364606 l 3.912072,-0.130109 0.138975,-0.822585 c 0.07643,-0.452419 0.101079,-0.860477 0.05476,-0.906792 -0.04632,-0.04632 -1.522189,-0.1491 -3.279716,-0.228407 L 55.61056,36.623597 v -3.38998 c 0,-2.625348 -0.06895,-3.488423 -0.305695,-3.826423 -0.285752,-0.407967 -0.58373,-0.446396 -4.56729,-0.589016 -2.343876,-0.08392 -4.321925,-0.189861 -4.395664,-0.235434 -0.07374,-0.04557 -0.153166,-3.740352 -0.176505,-8.210618 -0.03878,-7.427083 -0.01298,-8.116455 0.299254,-7.99664 0.187928,0.07212 7.975675,1.651878 17.306104,3.510586 9.33043,1.858707 17.177292,3.430762 17.437474,3.493454 0.469153,0.113046 0.473058,0.145684 0.473058,3.954499 0,2.112281 -0.06106,4.145804 -0.135686,4.518939 -0.09386,0.46928 -0.661505,1.206561 -1.841321,2.39157 C 77.524035,32.434381 66.363691,44.138066 64.73319,45.944499 62.290135,48.651163 47.083407,63.845383 46.51734,64.145366 l -0.578181,0.306403 z"
   id="path3"
   transform="scale(33.263973)" /><path
   style="fill:#f8f9fa;fill-opacity:1;stroke-width:0.210248"
   d="m 11.296557,23.928645 0.05683,-4.349693 17.240325,-3.739311 c 9.482178,-2.056621 17.334936,-3.741839 17.450573,-3.744928 0.137588,-0.0037 0.190406,2.791776 0.152833,8.089004 l -0.05741,8.094621 H 28.689716 11.23973 Z"
   id="path4"
   transform="scale(33.263973)" /><path
   style="fill:#f8f9fa;fill-opacity:1;stroke-width:0.210248"
   d="m 0.10512393,19.456031 v -8.822306 l 0.7884295,-0.202281 C 1.3271897,10.32019 2.2496522,10.117701 2.9434701,9.9814693 3.6372881,9.8452373 13.00383,7.7078734 23.758009,5.2317721 34.512187,2.7556708 43.807771,0.67080963 44.414862,0.59874742 l 1.103801,-0.1310222 V 4.3896594 8.3115937 l -0.683306,0.3128 c -0.375818,0.1720402 -8.72406,2.1183233 -18.551649,4.3250733 -9.82759,2.20675 -17.9405296,4.056885 -18.0287551,4.111412 -0.088226,0.05453 -0.1604101,2.60076 -0.1604101,5.658299 v 5.55916 H 4.0998334 0.10512393 Z"
   id="path5"
   transform="scale(33.263973)" /><path
   style="fill:#f8f9fa;fill-opacity:1;stroke-width:0.210248"
   d="m 84.099146,21.557073 c 0,-2.892214 -0.05962,-3.625054 -0.315372,-3.876475 C 83.39059,17.294071 77.433946,15.831179 66.122954,13.343277 49.343506,9.6525651 47.260689,9.1765126 46.497591,8.85767 L 45.728911,8.536495 V 4.3066414 c 0,-3.92862905 0.0262,-4.22230852 0.367933,-4.12390295 0.202364,0.0582729 10.727898,2.40097425 23.390076,5.20600305 12.662177,2.8050286 23.091651,5.1999735 23.176608,5.3220995 0.264424,0.380115 0.171507,5.224697 -0.109356,5.701562 -0.522483,0.887107 -6.660161,7.598414 -7.448729,8.144892 -0.450259,0.312029 -0.860871,0.567077 -0.912474,0.566774 -0.0516,-3.03e-4 -0.09382,-1.605451 -0.09382,-3.566996 z"
   id="path6"
   transform="scale(33.263973)" /><path
   style="fill:#f8f9fa;fill-opacity:1;stroke-width:0.210248"
   d="m 46.543084,103.62025 c -0.220303,-0.26517 -0.301041,-1.38989 -0.341349,-4.755121 l -0.05279,-4.407798 1.839902,-1.089073 c 2.145736,-1.270101 5.175631,-3.284844 7.411471,-4.928292 1.806066,-1.327543 10.309964,-8.758937 10.599428,-9.262638 0.105688,-0.183908 0.658994,-0.848878 1.229568,-1.477711 0.570575,-0.628832 1.584645,-1.858782 2.253488,-2.733222 0.668842,-0.87444 1.463749,-1.819258 1.766462,-2.099596 0.302713,-0.28034 0.550387,-0.617525 0.550387,-0.7493 0,-0.131777 0.44213,-0.895831 0.982514,-1.697897 2.096812,-3.112209 3.509797,-5.519791 4.398843,-7.495176 0.509345,-1.131718 1.351421,-3.003177 1.871284,-4.158798 1.011187,-2.247798 2.460182,-6.995403 3.337191,-10.934239 0.658845,-2.959013 1.109345,-6.528038 1.306148,-10.347777 0.107867,-2.093619 0.241139,-3.025718 0.486303,-3.40118 0.611073,-0.935848 6.05833,-7.990131 6.960895,-9.014468 0.485958,-0.551525 1.076351,-1.10595 1.311982,-1.232056 l 0.42842,-0.229283 -0.123977,7.854863 c -0.128982,8.172127 -0.306509,10.368954 -1.305872,16.159654 -0.700027,4.056227 -1.48451,7.185037 -2.187682,8.725286 -0.316749,0.693818 -0.699301,1.781851 -0.850116,2.41785 -0.384524,1.621587 -3.434979,8.653485 -4.261495,9.823588 -0.377126,0.533895 -1.122341,1.800191 -1.656036,2.813991 -1.152178,2.188661 -3.008212,4.992235 -4.118863,6.221615 -0.438748,0.485649 -1.050886,1.289847 -1.36031,1.787107 -1.263035,2.029758 -6.281164,7.557364 -7.531115,8.295729 -0.316023,0.186679 -0.732781,0.607215 -0.926127,0.934522 -1.043994,1.767342 -10.379666,8.867515 -16.834736,12.80353 -1.374993,0.83841 -4.577563,2.52321 -4.79627,2.52321 -0.05444,0 -0.228839,-0.15629 -0.387543,-0.34732 z"
   id="path7"
   transform="scale(33.263973)" /><path
   style="fill:#f8f9fa;fill-opacity:1;stroke-width:0.210248"
   d="m 45.786917,91.005021 c -0.190458,-0.07713 -0.163129,-0.247954 0.105124,-0.657071 0.314932,-0.480311 0.369152,-1.242977 0.41327,-5.813193 l 0.05078,-5.260352 0.685087,-0.35219 c 1.217446,-0.625868 2.594993,-2.017017 4.604867,-4.650336 1.081938,-1.417546 2.549783,-3.192332 3.261879,-3.943968 0.712095,-0.751636 2.21584,-2.596561 3.341655,-4.099833 2.828166,-3.77638 7.898217,-10.098752 12.283522,-15.317601 2.026418,-2.411591 4.488593,-5.434301 5.471501,-6.717133 0.982909,-1.282832 2.516615,-3.094173 3.408238,-4.025203 l 1.621129,-1.692782 0.0072,0.946116 c 0.0099,1.311111 -0.733411,6.250801 -1.471167,9.776525 -0.797476,3.81113 -2.176614,8.073443 -3.015768,9.32042 -0.364473,0.541605 -0.789958,1.409809 -0.945522,1.929347 -1.119516,3.738829 -7.248834,12.743907 -11.87673,17.449067 -3.243521,3.297673 -6.441403,6.070604 -10.223853,8.865259 -5.129444,3.789878 -6.703734,4.65498 -7.721165,4.242928 z"
   id="path8"
   transform="scale(33.263973)" /><path
   style="fill:#f8f9fa;fill-opacity:1;stroke-width:0.210248"
   d="M 45.140795,103.33804 C 44.07361,102.8537 36.933984,98.34674 34.375526,96.542357 31.052281,94.1986 24.615278,88.76028 21.888981,85.993069 17.626787,81.666908 12.945978,75.875492 11.52715,73.172705 11.100365,72.359704 10.327492,71.079547 9.8096558,70.327911 7.1029172,66.3991 2.9785657,55.404126 1.7056875,48.723806 L 1.4154624,47.200646 H 23.572188 45.728911 v 8.515038 8.515039 l -0.578182,0.02327 c -1.855027,0.07467 -2.666647,-0.399155 -6.876358,-4.014415 -3.418199,-2.935518 -4.751198,-3.842104 -6.219727,-4.230103 -1.992834,-0.526526 -3.720046,0.39467 -4.802858,2.56157 -0.899909,1.800879 -0.875594,2.706479 0.112522,4.190747 2.622754,3.939689 9.67829,11.110179 14.159645,14.390348 1.586382,1.161166 3.585546,2.216427 4.198961,2.216427 0.416314,0 0.426492,0.117161 0.426492,4.909452 0,4.527027 -0.164838,6.233685 -0.602086,6.233685 -0.256383,0 -3.013687,-1.676165 -4.739999,-2.881445 -2.261653,-1.579048 -5.103365,-3.8521 -7.167663,-5.733333 C 30.416014,78.959162 24.550069,72.680374 23.471084,71.01269 22.890732,70.115697 22.114745,69.026079 21.746669,68.591316 19.605096,66.061745 17.869389,62.654697 15.990553,57.292541 15.443565,55.731451 14.77906,53.83922 14.513875,53.087584 l -0.482154,-1.366611 -1.601978,-0.06141 c -1.277689,-0.04898 -1.601978,-5.36e-4 -1.601978,0.23929 0,0.592893 1.07778,4.003719 2.025712,6.410728 1.898519,4.820757 4.728605,9.942925 7.63089,13.811137 0.783203,1.043866 1.556339,2.148117 1.718079,2.453895 0.433665,0.819856 5.590913,6.188076 8.490984,8.838331 3.835953,3.505521 11.334502,9.012041 14.359938,10.545143 l 1.1055,0.560199 -0.05729,4.146458 c -0.03151,2.280546 0.02004,4.359326 0.114562,4.619506 0.208501,0.57394 0.08443,0.58014 -1.075342,0.0538 z"
   id="path9"
   transform="scale(33.263973)" /><path
   style="fill:#f8f9fa;fill-opacity:1;stroke-width:0.210248"
   d="m 11.102437,36.531144 c 1.365251,-0.03668 3.541317,-0.03656 4.835701,2.68e-4 1.294384,0.03683 0.177361,0.06684 -2.482275,0.06669 -2.659635,-1.48e-4 -3.7186769,-0.03028 -2.353426,-0.06696 z"
   id="path10"
   transform="scale(33.263973)" /><path
   style="fill:#f8f9fa;fill-opacity:1;stroke-width:0.210248"
   d="M 0.10512393,33.744782 V 31.01156 H 9.7765257 19.447928 v 2.733222 2.733223 H 9.7765257 0.10512393 Z"
   id="path11"
   transform="scale(33.263973)" /><path
   style="fill:#f8f9fa;fill-opacity:1;stroke-width:0.210248"
   d="M 22.18115,33.744782 V 31.01156 h 6.202312 6.202312 v 2.733222 2.733223 H 28.383462 22.18115 Z"
   id="path12"
   transform="scale(33.263973)" /><path
   style="fill:#f8f9fa;fill-opacity:1;stroke-width:0.210248"
   d="m 45.882591,36.320319 c 0.08893,-0.318 0.161692,-1.689942 0.161692,-3.048759 v -2.470578 l 3.731899,1.65e-4 3.7319,1.65e-4 v 3.048594 3.048594 h -3.893591 -3.893592 z"
   id="path13"
   transform="scale(33.263973)" /><path
   style="fill:#f8f9fa;fill-opacity:1;stroke-width:0.210248"
   d="m 38.317673,36.324846 -0.788429,-0.08247 V 33.626967 31.01156 h 4.204957 4.204958 l -0.0029,2.260165 c -0.0045,3.508032 0.325736,3.21254 -3.543303,3.170936 -1.807785,-0.01944 -3.641675,-0.07245 -4.075312,-0.117815 z"
   id="path14"
   transform="scale(33.263973)" /><path
   style="fill:#f8f9fa;fill-opacity:1;stroke-width:0.210248"
   d="M 31.694866,44.73954 C 31.232578,44.6505 31.221808,44.584787 31.221808,41.85328 v -2.795146 l 0.957231,-0.131203 c 0.526477,-0.07216 4.665732,-0.112085 9.198344,-0.08872 4.532612,0.02337 7.365956,0.0731 6.29632,0.110515 l -1.944792,0.06803 v 2.797862 2.797861 L 42.857322,44.7502 C 39.78664,44.897468 32.478571,44.890488 31.694866,44.73954 Z"
   id="path15"
   transform="scale(33.263973)" /><path
   style="fill:#f8f9fa;fill-opacity:1;stroke-width:0.210248"
   d="m 45.939159,42.065939 v -2.854712 h 2.838346 2.838346 v 2.709359 2.709359 l -0.613549,0.09005 c -0.337451,0.04953 -1.614707,0.114937 -2.838346,0.145353 l -2.224797,0.0553 z"
   id="path16"
   transform="scale(33.263973)" /><path
   style="fill:#f8f9fa;fill-opacity:1;stroke-width:0.210248"
   d="m 16.578098,42.753141 c 0.07513,-1.058491 0.136607,-2.335747 0.136607,-2.838346 v -0.913816 l 5.939502,-3.54e-4 5.939503,-3.54e-4 -0.06394,2.8387 -0.06394,2.8387 h -6.012169 -6.01217 z"
   id="path17"
   transform="scale(33.263973)" /><path
   style="fill:#e9e4ee;fill-opacity:1;stroke-width:0.210248"
   d="M 3.3114039,44.52072 C 2.0104952,44.483833 0.94535955,44.433098 0.94443572,44.407976 0.94351192,44.382854 0.80159461,43.230557 0.62906393,41.847316 0.45653327,40.464075 0.3153718,39.257778 0.3153718,39.166656 c 0,-0.09112 3.0275693,-0.165677 6.7279317,-0.165677 h 6.7279315 v 2.838346 2.838346 L 9.7239638,44.63273 C 7.4979645,44.608012 4.6123125,44.557607 3.3114039,44.52072 Z"
   id="path18"
   transform="scale(33.263973)" /><path
   style="fill:#e9e4ee;fill-opacity:1;stroke-width:0.210248"
   d="m 45.939159,55.61056 v -8.620162 h 3.669811 3.669809 l 0.110546,-0.683306 c 0.0608,-0.375818 0.213255,-2.100843 0.338785,-3.833388 0.125531,-1.732545 0.261986,-3.183832 0.303235,-3.22508 0.04125,-0.04125 1.797575,-0.163142 3.902946,-0.270875 2.105372,-0.107733 3.910299,-0.246774 4.010951,-0.308981 0.100652,-0.06221 0.183002,-0.473585 0.183002,-0.914174 0,-0.762353 -0.03811,-0.807375 -0.788429,-0.931394 -0.433637,-0.07168 -1.461158,-0.131361 -2.283383,-0.132633 -0.822222,-0.0013 -1.933908,-0.06248 -2.470412,-0.136015 l -0.97546,-0.133703 -0.0032,-3.38795 c -0.0018,-1.863372 -0.08945,-3.52424 -0.194851,-3.690816 -0.227187,-0.359062 -2.23471,-0.616145 -4.953002,-0.63428 -1.040727,-0.0069 -2.388942,-0.07229 -2.996032,-0.145206 l -1.103802,-0.132583 -0.04066,-6.01534 -0.04066,-6.015341 -0.138093,5.886941 c -0.07595,3.237817 -0.152268,5.910593 -0.16959,5.939502 -0.01732,0.02891 -7.813295,0.05263 -17.324382,0.0527 l -17.292887,1.42e-4 0.07159,-4.257662 c 0.03938,-2.341714 0.09694,-4.283686 0.127914,-4.315492 0.05022,-0.05157 17.434187,-3.844172 29.617604,-6.46158 2.523052,-0.542036 4.640873,-0.932014 4.706268,-0.866618 0.0654,0.0654 0.187205,0.902502 0.270684,1.860235 l 0.15178,1.741332 0.03021,-1.757338 c 0.0294,-1.709864 0.04299,-1.754244 0.503272,-1.642848 0.260182,0.06297 8.089287,1.644238 17.398011,3.51393 9.308724,1.869692 17.000937,3.470234 17.093807,3.55676 0.09287,0.08653 0.165705,1.981098 0.161855,4.210161 l -0.007,4.052842 -0.569351,0.746459 c -0.313145,0.410553 -2.088987,2.318181 -3.946317,4.239173 -1.857329,1.920993 -6.603675,6.894722 -10.547435,11.052731 -7.268103,7.662952 -19.875629,20.280015 -20.264686,20.280015 -0.13963,0 -0.212436,-2.954342 -0.212436,-8.620163 z"
   id="path19"
   transform="scale(33.263973)" /><path
   style="fill:#e9e4ee;fill-opacity:1;stroke-width:0.210248"
   d="M 0.15537912,19.502428 0.21024787,10.726519 7.2535514,9.1243575 C 11.127368,8.2431687 18.93282,6.4609543 24.599,5.1638812 34.79857,2.8290473 43.515215,0.88726815 44.835357,0.65589225 L 45.518663,0.53613206 V 4.4041562 8.2721804 L 44.835357,8.4934598 C 43.853281,8.811492 40.428224,9.6102172 24.809248,13.163558 17.177251,14.899849 10.294261,16.466729 9.5137159,16.645514 l -1.4191731,0.325064 v 5.653879 5.653881 H 4.0975265 0.10051038 Z"
   id="path20"
   transform="scale(33.263973)" /><path
   style="fill:#e9e4ee;fill-opacity:1;stroke-width:0.210248"
   d="m 84.20427,21.899456 c 0,-4.43421 0.07738,-4.243326 -1.971341,-4.863331 C 80.002534,16.361139 75.997852,15.430834 60.971881,12.097095 54.149338,10.583411 47.914533,9.1512091 47.11676,8.9144243 L 45.666264,8.4839069 45.814535,4.4578983 C 45.896084,2.2435937 45.992448,0.40224739 46.028678,0.36601761 46.145994,0.24870177 90.488562,10.173048 91.930879,10.639426 l 0.683306,0.220949 v 2.580248 c 0,2.500778 -0.01838,2.605627 -0.596905,3.404249 -1.160351,1.601822 -6.706158,7.472219 -7.445076,7.880832 -0.342805,0.189566 -0.367934,-0.0035 -0.367934,-2.826248 z"
   id="path21"
   transform="scale(33.263973)" /><path
   style="fill:#e9e4ee;fill-opacity:1;stroke-width:0.210248"
   d="m 46.564699,103.21801 c -0.112775,-0.29661 -0.211041,-2.35441 -0.218372,-4.572886 -0.0097,-2.939301 -0.07108,-3.890988 -0.226202,-3.507965 -0.126598,0.312584 -0.185106,2.123436 -0.14436,4.467893 0.03768,2.168248 0.01724,3.942218 -0.04543,3.942148 -0.549191,-6.1e-4 -9.93166,-5.945345 -12.816298,-8.120408 C 29.766178,92.902449 25.796223,89.502293 22.836799,86.62462 13.085441,77.142631 7.3504109,67.730477 3.3627681,54.664445 2.6340586,52.276734 1.5828972,48.033806 1.5787637,47.463456 c -0.00151,-0.208592 4.5524499,-0.26281 22.0741213,-0.26281 h 22.076026 v 8.515038 8.515039 l -0.473058,-0.005 c -1.754037,-0.0186 -2.765693,-0.627405 -7.228284,-4.349935 -3.709628,-3.094435 -4.993565,-3.88701 -6.499032,-4.011856 -1.523499,-0.12634 -2.056857,0.04015 -3.078244,0.960907 -1.616383,1.457125 -2.28109,3.814098 -1.524995,5.407451 1.019927,2.149336 8.04733,9.706048 12.391053,13.324357 2.210336,1.841204 4.856076,3.53773 5.838753,3.743981 0.320405,0.06725 0.631417,0.201327 0.691133,0.297953 0.156332,0.252947 0.129233,9.538895 -0.02968,10.172071 -0.07328,0.291952 -0.25423,0.530823 -0.40212,0.530823 -0.523715,0 -6.556496,-4.189287 -9.184767,-6.378092 C 31.714949,80.163542 25.683156,73.839988 22.789527,69.83312 19.949958,65.901111 19.581238,65.320166 18.499788,63.07436 17.571338,61.146279 15.413959,55.513727 14.412939,52.40428 l -0.253818,-0.788429 h -1.665678 c -1.634423,0 -1.665678,0.0098 -1.665678,0.523105 0,0.28771 0.294957,1.446701 0.655461,2.575536 3.721139,11.651933 10.862893,21.891637 21.496191,30.820811 4.494126,3.773884 12.115554,8.971112 13.155608,8.971112 0.315702,0 3.766465,-2.127866 6.852348,-4.225406 2.776244,-1.887073 9.488295,-7.483245 12.204008,-10.175092 1.396475,-1.384203 5.622249,-6.370662 6.465624,-7.629504 5.265173,-7.858939 8.113543,-14.021231 10.225382,-22.122049 1.055171,-4.047532 1.403314,-6.487916 2.016265,-14.133441 0.152505,-1.902243 0.06269,-1.748716 3.984956,-6.811432 2.941948,-3.797355 4.61702,-5.722858 4.812397,-5.531872 0.189122,0.184873 -0.254121,15.815014 -0.512343,18.06683 -0.59017,5.146534 -1.874235,11.307145 -2.924312,14.030086 -0.349846,0.907182 -0.788846,2.166173 -0.975554,2.797762 -1.186112,4.012322 -5.586292,12.703286 -8.426073,16.642654 -3.622907,5.025722 -5.671562,7.463206 -9.525758,11.333726 -5.008946,5.030157 -9.434127,8.583697 -16.108321,12.93541 -2.649517,1.727543 -6.782767,4.069583 -7.185888,4.071773 -0.147407,8.1e-4 -0.360283,-0.24123 -0.473057,-0.53785 z"
   id="path22"
   transform="scale(33.263973)" /><path
   style="fill:#e9e4ee;fill-opacity:1;stroke-width:0.210248"
   d="m 46.059829,90.143772 c 0.20379,-0.571046 0.283913,-2.16402 0.290597,-5.777544 l 0.0092,-4.989112 0.78843,-0.405486 c 1.131623,-0.58199 2.384135,-1.857025 4.87837,-4.966097 1.205235,-1.502328 2.644665,-3.233696 3.198734,-3.847483 0.55407,-0.613785 2.116055,-2.553322 3.471078,-4.310082 3.326032,-4.312127 6.74189,-8.56887 11.420678,-14.232117 2.149536,-2.601817 4.886209,-5.947368 6.081493,-7.434556 1.195287,-1.487189 2.725391,-3.284808 3.400236,-3.994709 l 1.226987,-1.290731 0.0073,1.024257 c 0.02929,4.097159 -2.582045,15.211022 -4.305609,18.32471 -0.385935,0.697208 -0.946235,1.917317 -1.245109,2.711356 -1.76129,4.679316 -7.812415,13.085078 -13.181073,18.310146 -5.721533,5.568503 -13.987984,11.665878 -15.815889,11.665878 -0.495537,0 -0.500565,-0.01758 -0.225472,-0.78843 z"
   id="path23"
   transform="scale(33.263973)" /><path
   style="fill:#e9e4ee;fill-opacity:1;stroke-width:0.210248"
   d="M 22.18115,33.744782 V 31.01156 h 6.202312 6.202312 v 2.733222 2.733223 H 28.383462 22.18115 Z"
   id="path24"
   transform="scale(33.263973)" /><path
   style="fill:#e9e4ee;fill-opacity:1;stroke-width:0.210248"
   d="M 0.10512393,33.744782 V 31.01156 H 9.7765257 19.447928 v 2.733222 2.733223 H 9.7765257 0.10512393 Z"
   id="path25"
   transform="scale(33.263973)" /><path
   style="fill:#e9e4ee;fill-opacity:1;stroke-width:0.210248"
   d="m 37.669409,36.127591 c -0.07709,-0.07709 -0.140165,-1.259735 -0.140165,-2.628098 V 31.01156 h 4.153947 4.153946 l -0.04668,2.453411 c -0.03286,1.726755 -0.126723,2.504197 -0.316923,2.624879 -0.322393,0.204557 -7.602103,0.239763 -7.804124,0.03774 z"
   id="path26"
   transform="scale(33.263973)" /><path
   style="fill:#e9e4ee;fill-opacity:1;stroke-width:0.210248"
   d="m 46.018002,36.241476 c 0.07227,-0.361364 0.131404,-1.733231 0.131404,-3.048594 v -2.39157 h 3.679338 3.679338 v 3.048594 3.048594 h -3.810743 -3.810742 z"
   id="path27"
   transform="scale(33.263973)" /><path
   style="fill:#e9e4ee;fill-opacity:1;stroke-width:0.210248"
   d="m 46.790461,103.45437 c -0.150757,-0.18165 -0.288078,-1.78547 -0.368464,-4.303388 -0.07048,-2.207602 -0.207952,-4.013823 -0.305492,-4.013823 -0.09754,0 -0.177346,1.829157 -0.177346,4.064791 0,2.23564 -0.058,4.12279 -0.128889,4.19368 -0.07089,0.0709 -0.378376,-0.0415 -0.683305,-0.24975 -0.304931,-0.20825 -2.021075,-1.28656 -3.813659,-2.39624 C 33.819963,96.110968 28.82555,92.247062 23.052331,86.622121 15.847978,79.602802 11.81905,74.154719 7.9706721,66.228078 5.4295946,60.994129 3.1625063,54.533795 2.0245981,49.284038 L 1.6330977,47.477845 8.7008438,47.339584 C 12.588104,47.263539 22.509662,47.201169 30.74875,47.200982 l 14.980161,-3.36e-4 v 8.533519 8.533519 L 44.835357,64.11864 c -0.491454,-0.08198 -1.341581,-0.375021 -1.889171,-0.651216 -0.831548,-0.419417 -4.644407,-3.313369 -6.15281,-4.669969 -0.231272,-0.207998 -0.751636,-0.608041 -1.156363,-0.888982 -0.404727,-0.280944 -0.786611,-0.578293 -0.848632,-0.660778 -0.06202,-0.08248 -0.676996,-0.436079 -1.366611,-0.785765 -2.705383,-1.371834 -5.033342,-0.540331 -6.316182,2.256018 -1.010411,2.202504 -0.691617,3.32413 1.805905,6.353766 1.938397,2.351385 6.764855,7.31946 9.563866,9.844487 1.784038,1.609405 5.168648,3.909996 6.303116,4.284359 0.721236,0.237999 0.851558,0.38131 1.013151,1.114125 0.240178,1.089191 0.04664,9.541025 -0.224699,9.81236 -0.222053,0.222053 -4.018772,-2.241099 -7.471698,-4.847323 -4.125889,-3.114171 -10.031653,-8.975236 -13.949578,-13.844 -1.803626,-2.24135 -4.453117,-6.103254 -5.19049,-7.565671 -0.67947,-1.347579 -2.715742,-6.466093 -3.822161,-9.607646 l -0.895062,-2.54143 -1.705087,-0.06106 -1.705086,-0.06106 v 0.648163 c 0,0.72611 1.753454,6.154808 2.221513,6.877807 0.165804,0.256113 0.301461,0.569021 0.301461,0.695352 0,0.361196 2.357564,5.251546 2.531691,5.251546 0.08577,0 0.211328,0.220658 0.279017,0.490351 0.144073,0.574033 3.231512,5.468721 3.51454,5.571795 0.10584,0.03855 0.192436,0.160851 0.192436,0.271788 0,0.110937 0.402099,0.731355 0.893554,1.378704 0.491454,0.647349 1.079682,1.423856 1.307172,1.725568 0.948949,1.258556 4.610939,5.294678 6.241536,6.879209 3.37501,3.279665 8.249058,7.259234 11.321038,9.243417 0.520363,0.3361 0.993421,0.665527 1.051239,0.73206 0.09867,0.113542 1.492583,1.040727 2.421319,1.610583 1.820472,1.117009 2.629184,1.531226 2.989542,1.531226 0.439769,0 5.786362,-3.246773 5.907482,-3.587379 0.03855,-0.108395 0.180464,-0.197576 0.315371,-0.198182 0.211478,-9.46e-4 1.283793,-0.7992 5.505938,-4.098733 1.33195,-1.040898 5.600244,-4.717157 6.684215,-5.757081 3.050534,-2.926579 7.474467,-8.55384 9.905641,-12.60002 1.553694,-2.585799 4.025897,-7.362546 4.209814,-8.134131 0.02756,-0.115636 0.260882,-0.683305 0.518484,-1.261487 0.864667,-1.940718 2.113125,-5.74711 2.654928,-8.094543 0.04003,-0.173454 0.165986,-0.622859 0.27989,-0.998677 0.113906,-0.375818 0.16307,-0.683305 0.109255,-0.683305 -0.05382,0 -0.0058,-0.171973 0.106682,-0.382162 0.226601,-0.423407 0.770344,-3.44156 0.972788,-5.399655 0.07173,-0.693818 0.163533,-1.469652 0.203999,-1.724076 0.04047,-0.254423 0.183731,-1.768208 0.318366,-3.363965 0.186538,-2.210908 0.360119,-3.151552 0.729396,-3.952617 0.517355,-1.122291 5.164499,-7.199602 6.986646,-9.1368 l 1.096133,-1.165345 0.0073,3.258842 c 0.0339,15.085033 -1.362843,24.046035 -5.292552,33.95503 -1.004119,2.531948 -3.72411,8.025773 -5.290202,10.685129 -0.982821,1.668909 -4.245607,6.421402 -4.984595,7.260437 -0.137935,0.156609 -0.713482,0.866195 -1.278992,1.576858 -2.469477,3.103333 -7.780885,8.415415 -11.73936,11.740853 -4.208952,3.535856 -11.843138,8.690575 -15.961841,10.777685 -0.859536,0.43556 -1.067208,0.47343 -1.268173,0.23128 z"
   id="path28"
   transform="scale(33.263973)" /><path
   style="fill:#e9e4ee;fill-opacity:1;stroke-width:0.210248"
   d=""
   id="path29"
   transform="scale(33.263973)" /><path
   style="fill:#e9e4ee;fill-opacity:1;stroke-width:0.210248"
   d="m 31.567831,44.517017 c -0.05461,-0.08836 -0.168266,-1.280753 -0.252571,-2.649764 -0.124516,-2.021994 -0.09835,-2.523895 0.139443,-2.674472 0.160999,-0.10195 3.438558,-0.186812 7.283466,-0.188582 l 6.990742,-0.0032 v 2.704645 2.704644 l -0.97546,0.133702 c -1.387665,0.1902 -13.066166,0.166329 -13.18562,-0.02695 z"
   id="path30"
   transform="scale(33.263973)" /><path
   style="fill:#e9e4ee;fill-opacity:1;stroke-width:0.210248"
   d="m 16.5833,44.020647 c 0.07227,-0.361364 0.131405,-1.638619 0.131405,-2.838346 v -2.181322 h 5.886941 5.88694 l -0.0023,2.049917 c -0.0013,1.127454 -0.06096,2.40471 -0.132633,2.838346 l -0.13032,0.788429 h -5.885712 -5.885712 z"
   id="path31"
   transform="scale(33.263973)" /><path
   style="fill:#e9e4ee;fill-opacity:1;stroke-width:0.210248"
   d="m 45.939159,42.04465 v -2.833423 h 2.838346 2.838346 v 2.624093 c 0,3.068027 0.356168,2.752975 -3.311404,2.929141 l -2.365288,0.113613 z"
   id="path32"
   transform="scale(33.263973)" /></g>
</svg>
